{"title":"Thomas de Stoomlocomotief - Greatest Stories (2010)(RETAIL) Horn","uid":5996617,"size":4488777024,"categoryP":"video","categoryS":"movies_dvdr","magnet":"?xt=urn:btih:129e212332843a8ea7f21add80548257088e28ac&amp;dn=Thomas+de+Stoomlocomotief+-+Greatest+Stories+%282010%29%28RETAIL%29+Horn&amp;tr=udp%3A%2F%2Ftracker.openbittorrent.com%3A80&amp;tr=udp%3A%2F%2Fopen.demonii.com%3A1337&amp;tr=udp%3A%2F%2Ftracker.coppersurfer.tk%3A6969&amp;tr=udp%3A%2F%2Fexodus.desync.com%3A6969","seeders":0,"leechers":4,"uploader":null,"files":-1,"time":1291042898,"description":"Thomas de Stoomlocomotief - Greatest Stories (2010)\n\n[img]http://image.bayimg.com/oaaleaadp.jpg[/img]\n[img]http://image.bayimg.com/oaalgaadp.jpg[/img]\n\nCategorie: Beeld\nFormaat: DVD5\nBron: Retail\nOndertitels: Geen\nGenre: Animatie, kinderfilm.\nAudio: Nederlands\n\nIn De Avonturen van Thomas zijn zijn vriendjes heel belangrijk. Kijk mee hoe James en Henry iedere keer weer een hoofdrol spelen. De afleveringen zijn: James en de sneltrein, James en de personenwagons, Lastige goederenwagons, Thomas en de takelwagen, Kolenwagen en draaischijven, Een smerig geval, Oud roest, Moeilijkheden, Gezoem, Percy, James en de soep, Het droevige verhaal van Henry, James is niet grappig, Edward Gordon en Henry, Kolen, De vliegende vis, Fluiten en niezen, Het bos van Henry, Kolenwagons, Henry en de olifant, Verfpotten en koninginnen, Vis, Oliver in de val.\n\nVideo en Audio informatie:\n******************************\nVideo\nID                               : 224 (0xE0)\nFormat                           : MPEG Video\nFormat version                   : Version 2\nFormat profile                   : Main@Main\nFormat settings, BVOP            : Yes\nFormat settings, Matrix          : Default\nFormat settings, GOP             : M=2, N=14\nDuration                         : 35mn 29s\nBit rate mode                    : Variable\nBit rate                         : 3 729 Kbps\nNominal bit rate                 : 8 000 Kbps\nWidth                            : 720 pixels\nHeight                           : 576 pixels\nDisplay aspect ratio             : 4:3\nFrame rate                       : 25.000 fps\nStandard                         : PAL\nColor space                      : YUV\nChroma subsampling               : 4:2:0\nBit depth                        : 8 bits\nScan type                        : Interlaced\nScan order                       : Top Field First\nBits/(Pixel*Frame)               : 0.360\nStream size                      : 947 MiB (92%)\n\nAudio\nID                               : 128 (0x80)\nFormat                           : AC-3\nFormat/Info                      : Audio Coding 3\nMode extension                   : CM (complete main)\nDuration                         : 35mn 29s\nBit rate mode                    : Constant\nBit rate                         : 224 Kbps\nChannel(s)                       : 2 channels\nChannel positions                : Front: L R\nSampling rate                    : 48.0 KHz\nBit depth                        : 16 bits\nVideo delay                      : -720ms\nStream size                      : 56.9 MiB (6%)\n\n******************************\nBlack-Sam TBS","torrent":{"xt":"urn:btih:129e212332843a8ea7f21add80548257088e28ac","amp;dn":"Thomas+de+Stoomlocomotief+-+Greatest+Stories+%282010%29%28RETAIL%29+Horn","amp;tr":["udp%3A%2F%2Ftracker.openbittorrent.com%3A80","udp%3A%2F%2Fopen.demonii.com%3A1337","udp%3A%2F%2Ftracker.coppersurfer.tk%3A6969","udp%3A%2F%2Fexodus.desync.com%3A6969"],"infoHash":"129e212332843a8ea7f21add80548257088e28ac","infoHashBuffer":{"type":"Buffer","data":[18,158,33,35,50,132,58,142,167,242,26,221,128,84,130,87,8,142,40,172]},"announce":[],"urlList":[]}}